<svg width="720" height="720" viewBox="0 0 720 720" fill="none" xmlns="http://www.w3.org/2000/svg">
  <defs>
    <radialGradient id="glow" cx="0" cy="0" r="1" gradientUnits="userSpaceOnUse" gradientTransform="translate(360 360) rotate(90) scale(300)">
      <stop stop-color="#00D4FF" stop-opacity="0.36"/><stop offset="0.58" stop-color="#7B2CBF" stop-opacity="0.18"/><stop offset="1" stop-color="#00D4FF" stop-opacity="0"/>
    </radialGradient>
    <linearGradient id="line" x1="120" y1="120" x2="600" y2="600" gradientUnits="userSpaceOnUse"><stop stop-color="#00D4FF"/><stop offset="1" stop-color="#7B2CBF"/></linearGradient>
  </defs>
  <circle cx="360" cy="360" r="330" fill="url(#glow)"/>
  <circle cx="360" cy="360" r="218" stroke="url(#line)" stroke-opacity="0.6" stroke-width="2"/>
  <ellipse cx="360" cy="360" rx="96" ry="218" stroke="url(#line)" stroke-opacity="0.44" stroke-width="1.5"/>
  <ellipse cx="360" cy="360" rx="218" ry="82" stroke="url(#line)" stroke-opacity="0.44" stroke-width="1.5"/>
  <path d="M166 264C220 300 286 318 360 318C434 318 500 300 554 264" stroke="url(#line)" stroke-opacity="0.38" stroke-width="1.5"/>
  <path d="M166 456C220 420 286 402 360 402C434 402 500 420 554 456" stroke="url(#line)" stroke-opacity="0.38" stroke-width="1.5"/>
  <path d="M216 160L504 560M504 160L216 560" stroke="url(#line)" stroke-opacity="0.24" stroke-width="1"/>
  <g fill="#00D4FF"><circle cx="360" cy="142" r="5"/><circle cx="360" cy="578" r="5"/><circle cx="142" cy="360" r="5"/><circle cx="578" cy="360" r="5"/><circle cx="512" cy="220" r="4"/><circle cx="210" cy="502" r="4"/><circle cx="505" cy="505" r="4"/><circle cx="214" cy="216" r="4"/></g>
</svg>
